<svg xmlns="http://www.w3.org/2000/svg" viewBox="0 0 96 96"><g id="icon"><path d="M89.05,69.86l-46.64,0a.75.75,0,0,1,0-1.5h0l46.64,0a3.2,3.2,0,0,0,3.2-3.2V14.78a3.2,3.2,0,0,0-3.2-3.2H7a3.2,3.2,0,0,0-3.2,3.2V65.16A3.2,3.2,0,0,0,7,68.36H9.29a.75.75,0,1,1,0,1.5H7a4.71,4.71,0,0,1-4.7-4.7V14.78A4.71,4.71,0,0,1,7,10.08h82.1a4.71,4.71,0,0,1,4.7,4.7V65.16A4.71,4.71,0,0,1,89.05,69.86Z"/><path d="M65.56,53.77A15.81,15.81,0,1,1,80.05,31.63,16,16,0,0,1,81.36,38,15.82,15.82,0,0,1,65.56,53.77Zm0-30.11a14.28,14.28,0,1,0,13.11,8.57A14.33,14.33,0,0,0,65.56,23.66Z"/><path d="M65.56,38.72a.75.75,0,0,1-.41-.12.77.77,0,0,1-.34-.63V22.91a.75.75,0,0,1,.75-.75,15.85,15.85,0,0,1,14.49,9.47.78.78,0,0,1,0,.58.76.76,0,0,1-.4.41l-13.8,6A.8.8,0,0,1,65.56,38.72Zm.75-15V36.82l12-5.26A14.33,14.33,0,0,0,66.31,23.68Z"/><path d="M71.66,30.15a.75.75,0,0,1-.66-1.1l4.45-8.44a.75.75,0,0,1,.67-.4h9.45a.75.75,0,0,1,0,1.5h-9l-4.25,8A.75.75,0,0,1,71.66,30.15Z"/><path d="M56.12,56.8H46.66a.75.75,0,0,1,0-1.5h9l4.25-8a.75.75,0,0,1,1.32.7L56.78,56.4A.75.75,0,0,1,56.12,56.8Z"/><path d="M29.53,28.66H15a2.72,2.72,0,0,1-2.72-2.72V21.4A2.72,2.72,0,0,1,15,18.67H29.53a2.73,2.73,0,0,1,2.73,2.73v4.54A2.73,2.73,0,0,1,29.53,28.66ZM15,20.17a1.23,1.23,0,0,0-1.22,1.23v4.54A1.22,1.22,0,0,0,15,27.16H29.53a1.23,1.23,0,0,0,1.23-1.22V21.4a1.23,1.23,0,0,0-1.23-1.23Z"/><path d="M38.73,36.82H13a.75.75,0,1,1,0-1.5H38.73a.75.75,0,0,1,0,1.5Z"/><path d="M32.73,43.72H13a.75.75,0,0,1,0-1.5H32.73a.75.75,0,0,1,0,1.5Z"/><path d="M25.86,71.42a7.82,7.82,0,1,1,7.81-7.82A7.83,7.83,0,0,1,25.86,71.42Zm0-14.13a6.32,6.32,0,1,0,6.31,6.31A6.32,6.32,0,0,0,25.86,57.29Z"/><path d="M13.31,80.22a.83.83,0,0,1-.22,0,.75.75,0,0,1-.5-.94,14,14,0,0,1,6.8-8.17.76.76,0,0,1,.78,0,9.92,9.92,0,0,0,11.37,0,.76.76,0,0,1,.78,0,14,14,0,0,1,6.79,8.13.75.75,0,0,1-1.44.45,12.36,12.36,0,0,0-5.66-7,11.48,11.48,0,0,1-12.31,0A12.42,12.42,0,0,0,14,79.7.75.75,0,0,1,13.31,80.22Z"/><path d="M25.86,85.92A17.32,17.32,0,1,1,43.17,68.61,17.34,17.34,0,0,1,25.86,85.92Zm0-33.13A15.82,15.82,0,1,0,41.67,68.61,15.84,15.84,0,0,0,25.86,52.79Z"/></g></svg>