<?xml version="1.0" encoding="iso-8859-1"?>
<!-- Generator: Adobe Illustrator 19.0.0, SVG Export Plug-In . SVG Version: 6.00 Build 0)  -->
<svg version="1.1" id="Layer_1" xmlns="http://www.w3.org/2000/svg" xmlns:xlink="http://www.w3.org/1999/xlink" x="0px" y="0px"
	 viewBox="0 0 512 512" style="enable-background:new 0 0 512 512;" xml:space="preserve">
<linearGradient id="SVGID_1_" gradientUnits="userSpaceOnUse" x1="-42.4063" y1="618.9688" x2="-2.4063" y2="618.9688" gradientTransform="matrix(10.6667 0 0 -10.6667 473.6667 6826.3335)">
	<stop  offset="0" style="stop-color:#73DBE6"/>
	<stop  offset="1" style="stop-color:#CAE6B8"/>
</linearGradient>
<path style="fill:url(#SVGID_1_);" d="M85.333,85.333h320c10.912,0,21.835-4.171,30.165-12.501
	C443.829,64.501,448,53.579,448,42.667l0,0c0-10.912-4.171-21.835-12.501-30.165S416.245,0,405.333,0H64
	C53.088,0,42.165,4.171,33.835,12.501S21.333,31.755,21.333,42.667V448h64V85.333z"/>
<path style="fill:#6C747A;" d="M405.333,512H64V64h341.333V512z M85.333,490.667H384V85.333H85.333V490.667z"/>
<linearGradient id="SVGID_2_" gradientUnits="userSpaceOnUse" x1="-38.4063" y1="635.9688" x2="-2.4063" y2="635.9688" gradientTransform="matrix(10.6667 0 0 -10.6667 473.6667 6826.3335)">
	<stop  offset="0" style="stop-color:#4CC6C4"/>
	<stop  offset="1" style="stop-color:#79CFA2"/>
</linearGradient>
<path style="fill:url(#SVGID_2_);" d="M405.333,0H64c23.563,0,42.667,19.104,42.667,42.667S87.563,85.333,64,85.333h341.333
	c23.563,0,42.667-19.104,42.667-42.667S428.896,0,405.333,0z"/>
<g>
	<rect x="106.667" y="426.667" style="fill:#6C747A;" width="256" height="21.333"/>
	<rect x="106.667" y="384" style="fill:#6C747A;" width="256" height="21.333"/>
	<rect x="106.667" y="341.333" style="fill:#6C747A;" width="256" height="21.333"/>
	<rect x="106.667" y="298.667" style="fill:#6C747A;" width="256" height="21.333"/>
	<rect x="106.667" y="256" style="fill:#6C747A;" width="256" height="21.333"/>
	<rect x="106.667" y="213.333" style="fill:#6C747A;" width="256" height="21.333"/>
	<rect x="106.667" y="170.667" style="fill:#6C747A;" width="256" height="21.333"/>
	<rect x="106.667" y="128" style="fill:#6C747A;" width="256" height="21.333"/>
</g>
<rect x="128" y="85.333" style="fill:#FD7030;" width="21.333" height="405.333"/>
<linearGradient id="SVGID_3_" gradientUnits="userSpaceOnUse" x1="-2.4063" y1="612.9688" x2="1.5937" y2="612.9688" gradientTransform="matrix(10.6667 0 0 -10.6667 473.6667 6826.3335)">
	<stop  offset="0" style="stop-color:#FD6330"/>
	<stop  offset="1" style="stop-color:#FD8530"/>
</linearGradient>
<polygon style="fill:url(#SVGID_3_);" points="490.667,106.667 469.333,64 448,106.667 448,512 490.667,512 "/>
<linearGradient id="SVGID_4_" gradientUnits="userSpaceOnUse" x1="-2.4063" y1="595.9688" x2="1.5937" y2="595.9688" gradientTransform="matrix(10.6667 0 0 -10.6667 473.6667 6826.3335)">
	<stop  offset="0" style="stop-color:#6B2B12"/>
	<stop  offset="1" style="stop-color:#6B3D17"/>
</linearGradient>
<rect x="448" y="458.667" style="fill:url(#SVGID_4_);" width="42.667" height="21.333"/>
<g>
	<rect x="128" y="128" style="fill:#6B3917;" width="21.333" height="21.333"/>
	<rect x="128" y="170.667" style="fill:#6B3917;" width="21.333" height="21.333"/>
	<rect x="128" y="213.333" style="fill:#6B3917;" width="21.333" height="21.333"/>
	<rect x="128" y="256" style="fill:#6B3917;" width="21.333" height="21.333"/>
	<rect x="128" y="298.667" style="fill:#6B3917;" width="21.333" height="21.333"/>
	<rect x="128" y="341.333" style="fill:#6B3917;" width="21.333" height="21.333"/>
	<rect x="128" y="384" style="fill:#6B3917;" width="21.333" height="21.333"/>
	<rect x="128" y="426.667" style="fill:#6B3917;" width="21.333" height="21.333"/>
</g>
<linearGradient id="SVGID_5_" gradientUnits="userSpaceOnUse" x1="-38.4063" y1="632.9688" x2="-6.4063" y2="632.9688" gradientTransform="matrix(10.6667 0 0 -10.6667 473.6667 6826.3335)">
	<stop  offset="0" style="stop-color:#31646F"/>
	<stop  offset="1" style="stop-color:#566958"/>
</linearGradient>
<path style="fill:url(#SVGID_5_);" d="M405.333,64H100.747C93.355,76.693,79.755,85.333,64,85.333h341.333V64z"/>
<g>
</g>
<g>
</g>
<g>
</g>
<g>
</g>
<g>
</g>
<g>
</g>
<g>
</g>
<g>
</g>
<g>
</g>
<g>
</g>
<g>
</g>
<g>
</g>
<g>
</g>
<g>
</g>
<g>
</g>
</svg>
