<?xml version="1.0" ?><!DOCTYPE svg  PUBLIC '-//W3C//DTD SVG 1.1//EN'  'http://www.w3.org/Graphics/SVG/1.1/DTD/svg11.dtd'><svg xmlns="http://www.w3.org/2000/svg" fill="#1ebd33" xmlns:xlink="http://www.w3.org/1999/xlink" xmlns:serif="http://www.serif.com/" width="100%" height="100%" viewBox="0 0 64 64" version="1.1" xml:space="preserve" style="fill-rule:evenodd;clip-rule:evenodd;stroke-linejoin:round;stroke-miterlimit:2;"><g><g transform="matrix(1,0,0,1,1.5,0)"><path d="M40.473,3C40.473,1.895 39.578,1 38.473,1L22.5,1C21.395,1 20.5,1.895 20.5,3L20.5,30C20.5,30 14.5,30 14.5,30C13.691,30 12.962,30.487 12.652,31.235C12.343,31.982 12.514,32.842 13.086,33.414L29.086,49.414C29.867,50.195 31.133,50.195 31.914,49.414L47.914,33.414C48.486,32.842 48.657,31.982 48.348,31.235C48.038,30.487 47.309,30 46.5,30L40.473,30C40.473,30 40.473,3 40.473,3ZM36.473,5L36.473,32C36.473,33.105 37.369,34 38.473,34L41.672,34C41.672,34 30.5,45.172 30.5,45.172C30.5,45.172 19.328,34 19.328,34C19.328,34 22.5,34 22.5,34C23.605,34 24.5,33.105 24.5,32L24.5,5L36.473,5Z"/></g><g transform="matrix(1,0,0,1,1,2)"><path d="M62,53.75C62,51.68 60.32,50 58.25,50C58.25,50 3.75,50 3.75,50C1.68,50 0,51.68 0,53.75L0,57.25C0,59.32 1.68,61 3.75,61C3.75,61 58.25,61 58.25,61C60.32,61 62,59.32 62,57.25C62,57.25 62,53.75 62,53.75ZM4,54L4,57L58,57L58,54L4,54Z"/></g></g></svg>