<?xml version="1.0" ?><svg fill="#1ebd33" viewBox="0 0 64 64" xmlns="http://www.w3.org/2000/svg"><g id="a"/><g id="b"/><g id="c"/><g id="d"/><g id="e"/><g id="f"/><g id="g"/><g id="h"/><g id="i"/><g id="j"/><g id="k"/><g id="l"/><g id="m"/><g id="n"/><g id="o"/><g id="p"/><g id="q"><path d="M58.04,42.69V18.24c0-1.63-1.33-2.96-2.96-2.96h-7.5c-1.63,0-2.96,1.33-2.96,2.96v4.17h-2.62V7.49c0-1.48-1.2-2.68-2.68-2.68h-10.45c-1.48,0-2.68,1.2-2.68,2.68v14.92h-2.12v-4.17c0-1.63-1.33-2.96-2.96-2.96H8.92c-1.63,0-2.96,1.33-2.96,2.96v24.45c-1.14,.41-1.96,1.48-1.96,2.76v10.79c0,1.63,1.33,2.96,2.96,2.96H57.04c1.63,0,2.96-1.33,2.96-2.96v-10.79c0-1.28-.82-2.34-1.96-2.76Zm-51.08,1.8H57.04c.53,0,.96,.43,.96,.96v1.89c-.3-.11-.62-.19-.96-.19H6.96c-.34,0-.66,.09-.96,.19v-1.89c0-.53,.43-.96,.96-.96ZM46.62,18.24c0-.53,.43-.96,.96-.96h7.5c.53,0,.96,.43,.96,.96v24.25h-2.54V25.37c0-1.63-1.33-2.96-2.96-2.96h-3.92v-4.17Zm3.92,6.17c.53,0,.96,.43,.96,.96v17.11h-9.51V24.41h8.55ZM28.17,7.49c0-.38,.3-.68,.68-.68h10.45c.38,0,.68,.3,.68,.68V42.48h-3.78v-5.46c.04,.51,.45,.93,.97,.93h.74c.55,0,1-.45,1-1s-.45-1-1-1h-.74c-.53,0-.93,.41-.97,.93v-2.94c.04,.51,.45,.93,.97,.93h.74c.55,0,1-.45,1-1s-.45-1-1-1h-.74c-.53,0-.93,.41-.97,.93v-6.03c.04,.51,.45,.93,.97,.93h.74c.55,0,1-.45,1-1s-.45-1-1-1h-.74c-.53,0-.93,.41-.97,.93v-2.25c0-1.63-1.33-2.96-2.96-2.96h-2c.4-.13,.72-.44,.72-.88,0-.55-.45-1-1-1h-.74c-.55,0-1,.45-1,1,0,.44,.32,.75,.72,.88h-1.79V7.49Zm5.08,16.92c.54,0,.96,.42,.96,.96v17.11h-10.17V24.41h9.21Zm-24.33-7.13h12.17c.53,0,.96,.43,.96,.96v24.25H7.96V18.24c0-.54,.42-.96,.96-.96ZM58,56.23c0,.53-.43,.96-.96,.96H6.96c-.53,0-.96-.43-.96-.96v-6.14c0-.54,.42-.96,.96-.96H57.04c.53,0,.96,.43,.96,.96v6.14Z"/><path d="M18.87,21.31h.92c.55,0,1-.45,1-1s-.45-1-1-1h-.92c-.55,0-1,.45-1,1s.45,1,1,1Z"/><path d="M10.22,21.31h.92c.55,0,1-.45,1-1s-.45-1-1-1h-.92c-.55,0-1,.45-1,1s.45,1,1,1Z"/><path d="M18.87,25.14h.92c.55,0,1-.45,1-1s-.45-1-1-1h-.92c-.55,0-1,.45-1,1s.45,1,1,1Z"/><path d="M14.54,25.14h.92c.55,0,1-.45,1-1s-.45-1-1-1h-.92c-.55,0-1,.45-1,1s.45,1,1,1Z"/><path d="M10.22,25.14h.92c.55,0,1-.45,1-1s-.45-1-1-1h-.92c-.55,0-1,.45-1,1s.45,1,1,1Z"/><path d="M14.54,28.98h.92c.55,0,1-.45,1-1s-.45-1-1-1h-.92c-.55,0-1,.45-1,1s.45,1,1,1Z"/><path d="M10.22,28.98h.92c.55,0,1-.45,1-1s-.45-1-1-1h-.92c-.55,0-1,.45-1,1s.45,1,1,1Z"/><path d="M14.54,32.82h.92c.55,0,1-.45,1-1s-.45-1-1-1h-.92c-.55,0-1,.45-1,1s.45,1,1,1Z"/><path d="M10.22,32.82h.92c.55,0,1-.45,1-1s-.45-1-1-1h-.92c-.55,0-1,.45-1,1s.45,1,1,1Z"/><path d="M18.87,32.82h.92c.55,0,1-.45,1-1s-.45-1-1-1h-.92c-.55,0-1,.45-1,1s.45,1,1,1Z"/><path d="M18.87,36.65h.92c.55,0,1-.45,1-1s-.45-1-1-1h-.92c-.55,0-1,.45-1,1s.45,1,1,1Z"/><path d="M14.54,36.65h.92c.55,0,1-.45,1-1s-.45-1-1-1h-.92c-.55,0-1,.45-1,1s.45,1,1,1Z"/><path d="M10.22,40.49h.92c.55,0,1-.45,1-1s-.45-1-1-1h-.92c-.55,0-1,.45-1,1s.45,1,1,1Z"/><path d="M18.87,40.49h.92c.55,0,1-.45,1-1s-.45-1-1-1h-.92c-.55,0-1,.45-1,1s.45,1,1,1Z"/><path d="M37.19,10.18h.74c.55,0,1-.45,1-1s-.45-1-1-1h-.74c-.55,0-1,.45-1,1s.45,1,1,1Z"/><path d="M33.71,10.18h.74c.55,0,1-.45,1-1s-.45-1-1-1h-.74c-.55,0-1,.45-1,1s.45,1,1,1Z"/><path d="M30.24,10.18h.74c.55,0,1-.45,1-1s-.45-1-1-1h-.74c-.55,0-1,.45-1,1s.45,1,1,1Z"/><path d="M33.71,13.27h.74c.55,0,1-.45,1-1s-.45-1-1-1h-.74c-.55,0-1,.45-1,1s.45,1,1,1Z"/><path d="M37.19,13.27h.74c.55,0,1-.45,1-1s-.45-1-1-1h-.74c-.55,0-1,.45-1,1s.45,1,1,1Z"/><path d="M30.24,16.35h.74c.55,0,1-.45,1-1s-.45-1-1-1h-.74c-.55,0-1,.45-1,1s.45,1,1,1Z"/><path d="M33.71,16.35h.74c.55,0,1-.45,1-1s-.45-1-1-1h-.74c-.55,0-1,.45-1,1s.45,1,1,1Z"/><path d="M30.24,19.44h.74c.55,0,1-.45,1-1s-.45-1-1-1h-.74c-.55,0-1,.45-1,1s.45,1,1,1Z"/><path d="M37.19,19.44h.74c.55,0,1-.45,1-1s-.45-1-1-1h-.74c-.55,0-1,.45-1,1s.45,1,1,1Z"/><path d="M33.71,19.44h.74c.55,0,1-.45,1-1s-.45-1-1-1h-.74c-.55,0-1,.45-1,1s.45,1,1,1Z"/><path d="M37.19,22.52h.74c.55,0,1-.45,1-1s-.45-1-1-1h-.74c-.55,0-1,.45-1,1s.45,1,1,1Z"/><path d="M37.19,25.61h.74c.55,0,1-.45,1-1s-.45-1-1-1h-.74c-.55,0-1,.45-1,1s.45,1,1,1Z"/><path d="M26.71,28.44h.92c.55,0,1-.45,1-1s-.45-1-1-1h-.92c-.55,0-1,.45-1,1s.45,1,1,1Z"/><path d="M31.03,28.44h.92c.55,0,1-.45,1-1s-.45-1-1-1h-.92c-.55,0-1,.45-1,1s.45,1,1,1Z"/><path d="M26.71,32.28h.92c.55,0,1-.45,1-1s-.45-1-1-1h-.92c-.55,0-1,.45-1,1s.45,1,1,1Z"/><path d="M27.63,34.11h-.92c-.55,0-1,.45-1,1s.45,1,1,1h.92c.55,0,1-.45,1-1s-.45-1-1-1Z"/><path d="M31.03,36.11h.92c.55,0,1-.45,1-1s-.45-1-1-1h-.92c-.55,0-1,.45-1,1s.45,1,1,1Z"/><path d="M31.03,39.95h.92c.55,0,1-.45,1-1s-.45-1-1-1h-.92c-.55,0-1,.45-1,1s.45,1,1,1Z"/><path d="M48.13,27.26h.92c.55,0,1-.45,1-1s-.45-1-1-1h-.92c-.55,0-1,.45-1,1s.45,1,1,1Z"/><path d="M48.13,31.1h.92c.55,0,1-.45,1-1s-.45-1-1-1h-.92c-.55,0-1,.45-1,1s.45,1,1,1Z"/><path d="M43.81,31.1h.92c.55,0,1-.45,1-1s-.45-1-1-1h-.92c-.55,0-1,.45-1,1s.45,1,1,1Z"/><path d="M43.81,34.94h.92c.55,0,1-.45,1-1s-.45-1-1-1h-.92c-.55,0-1,.45-1,1s.45,1,1,1Z"/><path d="M48.13,34.94h.92c.55,0,1-.45,1-1s-.45-1-1-1h-.92c-.55,0-1,.45-1,1s.45,1,1,1Z"/><path d="M44.73,36.77h-.92c-.55,0-1,.45-1,1s.45,1,1,1h.92c.55,0,1-.45,1-1s-.45-1-1-1Z"/><path d="M48.13,38.77h.92c.55,0,1-.45,1-1s-.45-1-1-1h-.92c-.55,0-1,.45-1,1s.45,1,1,1Z"/><circle cx="12.15" cy="53.89" r="1"/><circle cx="24.31" cy="51.5" r="1"/><circle cx="34.24" cy="54.07" r="1"/><circle cx="49.17" cy="54.16" r="1"/><circle cx="40.75" cy="52.15" r="1"/></g><g id="r"/><g id="s"/><g id="t"/><g id="u"/><g id="v"/><g id="w"/><g id="x"/><g id="y"/><g id="a`"/><g id="aa"/><g id="ab"/><g id="ac"/><g id="ad"/><g id="ae"/><g id="af"/><g id="ag"/><g id="ah"/><g id="ai"/><g id="aj"/><g id="ak"/><g id="al"/><g id="am"/><g id="an"/><g id="ao"/><g id="ap"/><g id="aq"/><g id="ar"/><g id="as"/><g id="at"/><g id="au"/><g id="av"/><g id="aw"/><g id="ax"/></svg>