<?xml version="1.0" ?><!DOCTYPE svg  PUBLIC '-//W3C//DTD SVG 1.1//EN'  'http://www.w3.org/Graphics/SVG/1.1/DTD/svg11.dtd'><svg fill="white" enable-background="new 0 0 512 512" height="512px" id="Слой_1" version="1.1" viewBox="0 0 512 512" width="512px" xml:space="preserve" xmlns="http://www.w3.org/2000/svg" xmlns:xlink="http://www.w3.org/1999/xlink"><g><g><g><polygon clip-rule="evenodd" fill="white" fill-rule="evenodd" points="136.177,453.637 203.624,440.194 207.35,398.708       305.523,398.708 309.25,440.194 376.696,453.637 379.606,470.221 133.209,470.221     "/></g><g><polygon clip-rule="evenodd" fill="white" fill-rule="evenodd" points="120.405,313.81 201.646,313.81 195.361,384.625       101.55,384.625     "/></g><g><polygon clip-rule="evenodd" fill="white" fill-rule="evenodd" points="215.729,313.81 297.319,313.81 303.546,384.625       209.386,384.625     "/></g><g><polygon clip-rule="evenodd" fill="white" fill-rule="evenodd" points="311.343,313.81 392.584,313.81 411.322,384.625       317.569,384.625     "/></g><g><polygon clip-rule="evenodd" fill="white" fill-rule="evenodd" points="388.858,299.788 310.063,299.788 304.767,239.735       372.854,239.735     "/></g><g><polygon clip-rule="evenodd" fill="white" fill-rule="evenodd" points="222.247,239.735 290.743,239.735 296.037,299.788       216.951,299.788     "/></g><g><polygon clip-rule="evenodd" fill="white" fill-rule="evenodd" points="140.134,239.735 208.222,239.735 202.927,299.788       124.13,299.788     "/></g><g><polygon clip-rule="evenodd" fill="white" fill-rule="evenodd" points="143.858,225.654 156.895,176.72 213.809,176.72       209.444,225.654     "/></g><g><polygon clip-rule="evenodd" fill="white" fill-rule="evenodd" points="223.528,225.654 227.893,176.72 285.155,176.72       289.463,225.654     "/></g><g><polygon clip-rule="evenodd" fill="white" fill-rule="evenodd" points="303.546,225.654 299.182,176.72 356.213,176.72       369.131,225.654     "/></g><g><path clip-rule="evenodd" d="M373.205,80.009l-17.108,52.487l44.46,32.352l-27.702,20.134      l-4.364-16.643v0.116c-0.209-1.482-0.868-2.782-1.978-3.898c-1.364-1.363-3.015-2.043-4.946-2.036h-44.52      c-0.098-2.353-0.332-4.739-0.698-7.158c-2.642-16.528-10.75-29.719-24.326-39.567c-13.544-9.838-28.579-13.445-45.101-10.822      c-16.532,2.603-29.723,10.672-39.572,24.205c-7.44,10.263-11.32,21.378-11.64,33.343h-44.17      c-1.933-0.007-3.582,0.673-4.946,2.036c-1.131,1.116-1.81,2.416-2.037,3.898l0.058-0.116l-4.422,16.759l-27.934-20.307      l44.519-32.295l-17.05-52.487h55.109l16.993-52.31l44.578,32.354l44.635-32.354l16.993,52.31H373.205z" fill="white" fill-rule="evenodd"/></g></g></g></svg>